<svg width="26" height="26" viewBox="0 0 26 26" fill="none" xmlns="http://www.w3.org/2000/svg">
<path fill-rule="evenodd" clip-rule="evenodd" d="M12.9992 0C5.82058 0 0 5.96755 0 13.3291C0 19.2175 3.72381 24.2135 8.89097 25.9766C9.54114 26.0982 9.74594 25.7033 9.74594 25.35C9.74594 25.0334 9.75244 24.1485 9.74594 23.0361C6.13022 23.8419 5.38091 21.2805 5.38091 21.2805C4.79007 19.7407 3.93836 19.3308 3.93836 19.3308C2.75831 18.5042 4.02694 18.5201 4.02694 18.5201C5.33133 18.6142 6.01888 19.8941 6.01888 19.8941C7.17861 21.9296 9.06083 21.3414 9.8012 21.0014C9.91986 20.1399 10.2563 19.5524 10.6277 19.2191C7.741 18.8825 4.70636 17.7393 4.70636 12.6317C4.70636 11.176 5.21268 9.98702 6.04407 9.05548C5.90998 8.71885 5.46299 7.3632 6.17167 5.52761C6.17167 5.52761 7.26313 5.16932 9.74594 6.89493C10.7829 6.59913 11.8955 6.45165 13.0008 6.44665C14.1053 6.45165 15.2171 6.59913 16.2557 6.89493C18.7385 5.17015 19.8283 5.52761 19.8283 5.52761C20.537 7.3632 20.0908 8.71885 19.9576 9.05548C20.7889 9.98702 21.2936 11.176 21.2936 12.6317C21.2936 17.7527 18.2541 18.8792 15.3577 19.2083C15.8241 19.6208 16.2476 20.4207 16.2476 21.6638C16.2476 23.3303 16.2476 24.9151 16.2476 25.3533C16.2476 25.71 16.4572 26.1041 17.1172 25.9749C22.2794 24.2093 26 19.2158 26 13.3291C26 5.96755 20.1794 0 12.9992 0Z" fill="#181616"/>
</svg>
