<svg viewBox="0 0 24 24" xmlns="http://www.w3.org/2000/svg"><path d="M19 6V4h2v2h2v2h-2v2h-2V8h-2V6h2ZM6.937 5.845c.07-.098.15-.219.25-.381l.295-.486C8.31 3.622 8.913 3 10 3h5v2h-5c-.087 0-.36.282-.812 1.022-.029.047-.237.391-.3.492a8.38 8.38 0 0 1-.327.5C8.112 7.635 7.664 8 7 8H4a1 1 0 0 0-1 1v9a1 1 0 0 0 1 1h16a1 1 0 0 0 1-1v-6h2v6a3 3 0 0 1-3 3H4a3 3 0 0 1-3-3V9a3 3 0 0 1 3-3h2.816c.033-.038.074-.09.121-.155ZM12 18a5 5 0 1 1 0-10 5 5 0 0 1 0 10Zm0-2a3 3 0 1 0 0-6 3 3 0 0 0 0 6Z" fill-rule="evenodd" fill="#ffffff" class="fill-000000"></path></svg>